<svg viewBox="0 -1 22 19" fill="black" xmlns="http://www.w3.org/2000/svg">
<path d="M11 4C13.76 4 16 6.24 16 9C16 9.645 15.87 10.26 15.645 10.825L18.57 13.75C20.08 12.49 21.27 10.86 22.005 9C20.27 4.61 16.005 1.5 11 1.5C9.6 1.5 8.26 1.75 7.015 2.2L9.175 4.355C9.74 4.135 10.355 4 11 4ZM1 1.275L3.28 3.555L3.735 4.01C2.085 5.3 0.78 7.015 0 9C1.73 13.39 6 16.5 11 16.5C12.55 16.5 14.03 16.2 15.385 15.655L15.81 16.08L18.725 19L20 17.73L2.275 0L1 1.275ZM6.53 6.8L8.075 8.345C8.03 8.56 8 8.775 8 9C8 10.655 9.345 12 11 12C11.225 12 11.44 11.97 11.65 11.925L13.195 13.47C12.53 13.8 11.79 14 11 14C8.24 14 6 11.76 6 9C6 8.21 6.2 7.47 6.53 6.8ZM10.835 6.015L13.985 9.165L14 9C14 7.345 12.655 6 11 6L10.835 6.015Z" stroke="none"/>
</svg>
