<svg width="30" height="39" viewBox="0 0 30 39" fill="none" xmlns="http://www.w3.org/2000/svg">
<path d="M29.9996 0H29.9775C29.9796 2.94919 29.9807 5.89839 29.9814 8.84758C29.98 9.01441 29.9746 9.18197 29.9996 9.34772V0Z" fill="#FEFFFF"/>
<path d="M15.367 1.56215C15.24 1.43576 15.1159 1.30613 14.9853 1.18335C14.8708 1.30974 14.7388 1.41988 14.6321 1.55349L14.6318 1.58129C14.7384 1.71526 14.8694 1.82721 14.9867 1.95107C15.1137 1.82179 15.2453 1.69685 15.367 1.56215Z" fill="#FEFFFF"/>
<path d="M17.3222 1.48706C17.1624 1.57336 17.0058 1.66509 16.8506 1.76006C16.9458 1.91317 17.0304 2.07314 17.121 2.22914C17.2765 2.14067 17.4317 2.05075 17.5844 1.95722C17.4966 1.80086 17.4074 1.64486 17.3222 1.48706Z" fill="#FEFFFF"/>
<path d="M13.1216 1.75968C12.97 1.66507 12.8155 1.57479 12.6607 1.4856C12.5672 1.64051 12.4816 1.80048 12.3896 1.95648C12.5448 2.04785 12.7021 2.13596 12.8544 2.23201C12.9436 2.07493 13.0378 1.92001 13.1216 1.75968Z" fill="#FEFFFF"/>
<path d="M15.5584 1.76043C15.5227 1.73009 15.496 1.69146 15.4614 1.6604C15.3437 1.79871 15.206 1.91715 15.085 2.05257C15.212 2.16848 15.3219 2.30282 15.4525 2.41404C15.5088 2.41765 15.5295 2.36059 15.5606 2.32557C15.4675 2.23204 15.3758 2.13743 15.2795 2.04787C15.3697 1.94929 15.4625 1.85287 15.5584 1.76043Z" fill="#FEFFFF"/>
<path d="M14.8959 2.04849C14.7693 1.91957 14.6419 1.79102 14.5156 1.66138C14.4835 1.69568 14.4511 1.72999 14.4186 1.76465C14.5196 1.8524 14.6159 1.94557 14.7001 2.04993C14.6066 2.14346 14.5131 2.23699 14.415 2.32618C14.4493 2.36013 14.4828 2.39515 14.5171 2.4291C14.6441 2.30271 14.7664 2.17199 14.8959 2.04849Z" fill="#FEFFFF"/>
<path d="M16.7493 1.85523C16.7079 1.8379 16.6644 1.87184 16.6227 1.8769C16.6769 1.99498 16.7411 2.10801 16.8146 2.2149C16.7286 2.32684 16.5842 2.36476 16.4746 2.44817C16.4925 2.48754 16.51 2.52654 16.5274 2.5659C16.6926 2.48356 16.8535 2.3922 17.0062 2.28784C16.9127 2.14845 16.8421 1.99498 16.7493 1.85523Z" fill="#FEFFFF"/>
<path d="M13.3508 1.88075C13.313 1.86667 13.2749 1.85295 13.2363 1.83887C13.15 1.99306 13.0505 2.14039 12.9834 2.3047C13.1372 2.39137 13.2866 2.4867 13.4447 2.56542C13.4664 2.52534 13.4878 2.48598 13.5096 2.44661C13.3933 2.378 13.2759 2.31012 13.1603 2.24006C13.2242 2.12053 13.2991 2.00678 13.3508 1.88075Z" fill="#FEFFFF"/>
<path d="M15.8424 2.05225C15.7828 1.98075 15.7179 1.9143 15.6476 1.85327C15.5855 1.91538 15.5278 1.98219 15.4746 2.05225C15.5381 2.11255 15.5991 2.17502 15.6597 2.23786C15.7207 2.17611 15.7817 2.114 15.8424 2.05225Z" fill="#FEFFFF"/>
<path d="M14.5078 2.04599C14.4486 1.98171 14.3887 1.91779 14.3295 1.85352C14.2606 1.91707 14.195 1.98388 14.1318 2.05321C14.1939 2.11315 14.2545 2.17382 14.3148 2.23521C14.3801 2.1731 14.4443 2.1099 14.5078 2.04599Z" fill="#FEFFFF"/>
<path d="M16.5102 1.96484C16.4289 2.00565 16.3483 2.04826 16.2695 2.09412C16.3087 2.16815 16.349 2.24182 16.3897 2.31512C16.4714 2.28226 16.5509 2.24434 16.6283 2.20173C16.5948 2.12012 16.5545 2.04104 16.5102 1.96484Z" fill="#FEFFFF"/>
<path d="M13.7126 2.09935C13.6331 2.05349 13.5535 2.0069 13.4743 1.95996C13.4361 2.03579 13.373 2.10368 13.3555 2.18782C13.414 2.25426 13.5068 2.27918 13.5842 2.31818C13.6256 2.24415 13.6684 2.17121 13.7126 2.09935Z" fill="#FEFFFF"/>
<path d="M17.6554 2.07251C17.5027 2.16784 17.3447 2.25415 17.1895 2.34587C17.2787 2.50223 17.3636 2.66076 17.4567 2.81495C17.4985 2.79365 17.5388 2.76945 17.5805 2.74815C17.5124 2.6279 17.4435 2.50837 17.3772 2.3874C17.4931 2.3242 17.6062 2.25667 17.7186 2.1877C17.7029 2.15881 17.6715 2.1014 17.6554 2.07251Z" fill="#FEFFFF"/>
<path d="M12.7725 2.33611C12.6241 2.24728 12.4714 2.16458 12.3248 2.07178C12.3087 2.11511 12.2884 2.15664 12.2695 2.19889C12.3801 2.26064 12.4885 2.32528 12.5977 2.38847C12.5459 2.50114 12.4721 2.60189 12.4218 2.71492C12.4072 2.77955 12.4817 2.79003 12.5203 2.81892C12.6016 2.65642 12.7211 2.51233 12.7725 2.33611Z" fill="#FEFFFF"/>
<path d="M15.3709 2.52959C15.2443 2.39995 15.1183 2.26959 14.9871 2.14429C14.8754 2.28043 14.7252 2.38262 14.6279 2.52959C14.727 2.67548 14.8744 2.78129 14.9889 2.91526C15.1169 2.78743 15.2436 2.65815 15.3709 2.52959Z" fill="#FEFFFF"/>
<path d="M19.4761 2.23071C19.3059 2.29102 19.1443 2.37371 18.9795 2.44738C19.0491 2.60771 19.1229 2.76588 19.1907 2.92658C19.368 2.89155 19.5214 2.78935 19.6876 2.72291C19.622 2.5568 19.5435 2.3961 19.4761 2.23071Z" fill="#FEFFFF"/>
<path d="M10.999 2.44848C10.8364 2.37409 10.673 2.30223 10.5125 2.22314C10.4315 2.38637 10.3662 2.55717 10.2852 2.72039C10.449 2.79551 10.6123 2.87098 10.78 2.93562C10.8549 2.7742 10.9266 2.61098 10.999 2.44848Z" fill="#FEFFFF"/>
<path d="M12.4125 2.43718C12.3383 2.39782 12.2698 2.34112 12.1878 2.31909C12.1364 2.39132 12.0968 2.47148 12.0576 2.55093C12.1307 2.5939 12.2038 2.63615 12.277 2.67876C12.3287 2.6022 12.3743 2.52168 12.4125 2.43718Z" fill="#FEFFFF"/>
<path d="M17.7955 2.31421C17.7149 2.35248 17.6347 2.39293 17.5605 2.44312C17.6051 2.5186 17.6482 2.59479 17.6885 2.67243C17.7631 2.63957 17.8376 2.60562 17.9029 2.55651C17.8929 2.46623 17.8341 2.39293 17.7955 2.31421Z" fill="#FEFFFF"/>
<path d="M17.0692 2.41846C16.9119 2.50585 16.7553 2.59468 16.6055 2.69398C16.6979 2.83915 16.7778 2.99154 16.8606 3.14212C17.0357 3.09301 17.1788 2.97168 17.3386 2.88898C17.2519 2.7301 17.1623 2.57337 17.0692 2.41846Z" fill="#FEFFFF"/>
<path d="M13.3679 2.69016C13.2177 2.59194 13.0625 2.50022 12.9016 2.42041C12.8125 2.57497 12.7258 2.73133 12.6387 2.88697C12.7957 2.97544 12.9423 3.08522 13.1128 3.14588C13.1941 2.99205 13.2887 2.84544 13.3679 2.69016Z" fill="#FEFFFF"/>
<path d="M18.8509 2.50098C18.8116 2.51975 18.7727 2.53889 18.7332 2.55767C18.7927 2.679 18.8466 2.80323 18.8965 2.92889C18.7717 2.9845 18.6468 3.03903 18.5234 3.09825C18.538 3.12678 18.5676 3.18456 18.5823 3.21345C18.7538 3.1582 18.9137 3.07189 19.0788 3.00075C19.005 2.8332 18.9293 2.66637 18.8509 2.50098Z" fill="#FEFFFF"/>
<path d="M11.241 2.55518C11.211 2.54218 11.1511 2.51655 11.1211 2.50391C11.0491 2.6711 10.9638 2.8336 10.9121 3.0091C11.0787 3.06832 11.2292 3.16763 11.4004 3.21349C11.4169 3.17304 11.4325 3.1326 11.4482 3.09216C11.3255 3.03546 11.2014 2.98057 11.0773 2.92641C11.1336 2.80363 11.1918 2.68121 11.241 2.55518Z" fill="#FEFFFF"/>
<path d="M18.6003 2.62256C18.5218 2.6482 18.4486 2.68864 18.373 2.72258C18.4008 2.80745 18.4355 2.89014 18.474 2.97067C18.556 2.93239 18.6381 2.89411 18.7201 2.85583C18.6791 2.78 18.663 2.67997 18.6003 2.62256Z" fill="#FEFFFF"/>
<path d="M11.6177 2.73433C11.5345 2.69316 11.4511 2.65236 11.3683 2.61011C11.328 2.69027 11.293 2.77405 11.2695 2.86108C11.3455 2.89539 11.4208 2.93113 11.4953 2.96797C11.537 2.89033 11.577 2.81197 11.6177 2.73433Z" fill="#FEFFFF"/>
<path d="M19.7513 2.85327C19.5815 2.90888 19.4256 2.99844 19.2598 3.06488C19.3243 3.23388 19.4021 3.39674 19.472 3.56321C19.5155 3.54552 19.559 3.52782 19.6026 3.51013C19.5473 3.38519 19.4938 3.25988 19.4417 3.13385C19.5601 3.07644 19.6796 3.02119 19.8002 2.9681C19.7841 2.92983 19.7677 2.89155 19.7513 2.85327Z" fill="#FEFFFF"/>
<path d="M10.7045 3.05869C10.5447 2.99514 10.3938 2.91064 10.2326 2.84961C10.2136 2.88861 10.1944 2.92797 10.1748 2.96697C10.2982 3.02041 10.4213 3.07458 10.5408 3.13597C10.4815 3.25766 10.428 3.38225 10.377 3.50791C10.4184 3.52669 10.4591 3.54583 10.4997 3.56497C10.5686 3.39669 10.6695 3.23925 10.7045 3.05869Z" fill="#FEFFFF"/>
<path d="M19.8627 3.10132C19.7778 3.12335 19.6968 3.15874 19.6201 3.20207C19.6515 3.27754 19.6833 3.35338 19.7154 3.42885C19.806 3.4209 19.8894 3.38479 19.9665 3.33821C19.9308 3.25985 19.8962 3.18113 19.8627 3.10132Z" fill="#FEFFFF"/>
<path d="M10.3736 3.20357C10.2909 3.16746 10.2074 3.13171 10.1239 3.09668C10.0797 3.17684 10.0397 3.26062 10.0244 3.35198C10.1 3.38268 10.1735 3.41662 10.2456 3.45454C10.2816 3.36715 10.3233 3.28301 10.3736 3.20357Z" fill="#FEFFFF"/>
<path d="M19.336 3.63185C19.2936 3.45274 19.204 3.28988 19.1298 3.12305C18.9779 3.21152 18.796 3.25269 18.6572 3.35741C18.7075 3.51521 18.7799 3.66652 18.852 3.8153L18.8762 3.82649C19.0371 3.78244 19.1809 3.6918 19.336 3.63185Z" fill="#FEFFFF"/>
<path d="M11.3373 3.3515C11.1761 3.26953 11.007 3.20381 10.845 3.12256C10.7744 3.28831 10.7016 3.45334 10.626 3.61728C10.7901 3.69456 10.9499 3.79098 11.1286 3.82745C11.1903 3.66531 11.2681 3.51039 11.3373 3.3515Z" fill="#FEFFFF"/>
<path d="M21.6818 3.9763C21.6315 3.80008 21.603 3.61591 21.5281 3.448C21.3622 3.50903 21.1885 3.54369 21.0205 3.5975C21.0768 3.76505 21.1025 3.942 21.1642 4.10739C21.3429 4.09439 21.5067 4.00989 21.6818 3.9763Z" fill="#FEFFFF"/>
<path d="M8.95361 3.59509C8.77632 3.54995 8.60189 3.47232 8.41604 3.47701C8.39428 3.64818 8.33863 3.8114 8.29297 3.97715C8.46919 4.02229 8.64291 4.07682 8.82091 4.11329C8.86336 3.93995 8.9076 3.76734 8.95361 3.59509Z" fill="#FEFFFF"/>
<path d="M9.20935 3.66798C9.1694 3.6539 9.12837 3.63982 9.08771 3.62573C9.04098 3.80232 8.98854 3.97782 8.95215 4.15693C9.12552 4.20351 9.29817 4.25298 9.47296 4.29235C9.4776 4.24504 9.48153 4.19773 9.48509 4.15043C9.35846 4.12118 9.23289 4.0876 9.10768 4.05185C9.14371 3.92437 9.17724 3.79618 9.20935 3.66798Z" fill="#FEFFFF"/>
<path d="M21.0295 4.15847C20.9881 3.97863 20.9475 3.79772 20.8836 3.62402C20.8543 3.63594 20.7962 3.65977 20.767 3.67169C20.7998 3.79844 20.8354 3.92447 20.864 4.0523C20.7381 4.08986 20.6114 4.12416 20.4834 4.15197C20.4908 4.19855 20.4983 4.24513 20.5058 4.29208C20.6817 4.252 20.8543 4.2 21.0295 4.15847Z" fill="#FEFFFF"/>
<path d="M9.59152 3.7595C9.50662 3.74072 9.42172 3.72013 9.33753 3.69702C9.3197 3.78297 9.29901 3.86783 9.27832 3.95341C9.36322 3.97833 9.44812 4.00325 9.53302 4.02744C9.56227 3.94041 9.58296 3.85086 9.59152 3.7595Z" fill="#FEFFFF"/>
<path d="M20.635 3.69873C20.5497 3.72365 20.4631 3.74459 20.376 3.76301C20.396 3.84931 20.4178 3.93562 20.4374 4.02228C20.5205 4.00134 20.6043 3.98256 20.6878 3.96378C20.6807 3.87351 20.6625 3.78467 20.635 3.69873Z" fill="#FEFFFF"/>
<path d="M21.7244 4.11865C21.5456 4.14862 21.373 4.20568 21.1982 4.25154C21.2417 4.42199 21.2902 4.59099 21.3284 4.76287C21.3762 4.7571 21.4236 4.75132 21.4707 4.74518C21.4401 4.60976 21.3972 4.47687 21.3737 4.33965C21.5 4.30824 21.6248 4.27212 21.7504 4.23782C21.7436 4.20821 21.7308 4.14862 21.7244 4.11865Z" fill="#FEFFFF"/>
<path d="M8.77683 4.25152C8.60703 4.20169 8.43687 4.15113 8.26315 4.11719C8.25245 4.1468 8.2314 4.20602 8.2207 4.23563C8.35304 4.27427 8.48681 4.30822 8.61737 4.35335C8.56886 4.48119 8.53925 4.6148 8.50715 4.74733C8.55423 4.75274 8.60061 4.75816 8.64734 4.76358C8.68872 4.59241 8.74187 4.42413 8.77683 4.25152Z" fill="#FEFFFF"/>
<path d="M21.0737 4.30078C20.8935 4.32136 20.7216 4.38059 20.5479 4.43006C20.5928 4.60123 20.6395 4.77167 20.6823 4.94356C20.8564 4.91792 21.0223 4.85689 21.1932 4.81681C21.1675 4.64167 21.1147 4.47231 21.0737 4.30078Z" fill="#FEFFFF"/>
<path d="M9.41943 4.42481C9.24999 4.38076 9.08233 4.32876 8.91004 4.2959C8.85974 4.46742 8.81194 4.64004 8.77734 4.8159C8.95284 4.84442 9.11979 4.93795 9.29815 4.9329C9.34381 4.76498 9.38983 4.59634 9.41943 4.42481Z" fill="#FEFFFF"/>
<path d="M21.7965 4.38062C21.7127 4.39362 21.6292 4.41059 21.5479 4.43442C21.5593 4.52759 21.5764 4.62039 21.6046 4.71031C21.6884 4.68359 21.7725 4.65903 21.857 4.63448C21.8346 4.55034 21.8136 4.4662 21.7965 4.38062Z" fill="#FEFFFF"/>
<path d="M8.44176 4.43731C8.35864 4.41636 8.27588 4.39433 8.19312 4.37158C8.16922 4.4597 8.1471 4.54817 8.12891 4.63808C8.21131 4.66553 8.29621 4.68575 8.38254 4.69261C8.40109 4.60739 8.42178 4.52217 8.44176 4.43731Z" fill="#FEFFFF"/>
<path d="M14.9845 5.2251C14.9317 5.55876 14.9242 5.90435 14.8119 6.22537C14.6995 6.30626 14.58 6.2084 14.4837 6.14773C14.2768 5.99498 14.0745 5.83573 13.8705 5.67901C14.0439 5.92348 14.2422 6.15026 14.397 6.40737C14.4405 6.46804 14.4423 6.54279 14.4313 6.61393C14.1141 6.76343 13.7528 6.73671 13.4189 6.8241C13.6212 6.83637 13.8216 6.86779 14.0217 6.89776C14.1609 6.92304 14.3132 6.93134 14.4305 7.02018C14.4666 7.13321 14.3913 7.23576 14.3317 7.32315C14.1798 7.53259 14.0264 7.74059 13.8655 7.94282C14.0592 7.80234 14.2486 7.65573 14.4377 7.5084C14.5279 7.44882 14.62 7.36504 14.7345 7.37154C14.8162 7.37046 14.834 7.46435 14.8547 7.52609C14.9203 7.81282 14.9442 8.10748 14.9842 8.39854C15.0345 8.12662 15.058 7.85037 15.1083 7.57846C15.1212 7.50551 15.1572 7.44051 15.1875 7.37443C15.3084 7.3524 15.4147 7.41487 15.5071 7.48565C15.709 7.63371 15.9031 7.79223 16.105 7.94029C15.9705 7.76009 15.8328 7.58243 15.6998 7.40151C15.6213 7.29101 15.5378 7.17437 15.5257 7.0339C15.5888 6.99418 15.6527 6.95157 15.7276 6.93857C15.9916 6.88332 16.2605 6.85298 16.5284 6.82265C16.2231 6.7349 15.8917 6.75729 15.5952 6.63668C15.4921 6.59587 15.5389 6.4684 15.5849 6.39979C15.7386 6.14737 15.9341 5.92457 16.1004 5.68082C15.9006 5.83898 15.6994 5.99571 15.495 6.14701C15.4101 6.19901 15.3206 6.27304 15.215 6.25932C15.1344 6.19215 15.1179 6.07912 15.098 5.98162C15.0594 5.72957 15.0234 5.47715 14.9845 5.2251Z" fill="#FEFFFF"/>
<path d="M19.3702 6.77808C19.311 7.09116 19.2988 7.41435 19.2125 7.72166C19.1936 7.82024 19.0837 7.84985 19.0049 7.79966C18.7327 7.65196 18.5137 7.42483 18.2522 7.26088C18.4117 7.46455 18.57 7.66894 18.7177 7.88127C18.7652 7.95927 18.8351 8.04377 18.8148 8.14163C18.7652 8.23624 18.645 8.2431 18.554 8.2673C18.2993 8.30883 18.0435 8.34096 17.7881 8.3778C18.0507 8.41752 18.3143 8.44858 18.5758 8.49371C18.6646 8.51646 18.7784 8.53055 18.8212 8.62552C18.8187 8.75371 18.7284 8.85482 18.6614 8.95594C18.5426 9.12999 18.397 9.28491 18.2925 9.46835C18.5483 9.30694 18.7588 9.0751 19.0334 8.94474C19.1233 8.89816 19.2075 8.97219 19.2221 9.06174C19.2967 9.36219 19.312 9.67382 19.3702 9.97716C19.4023 9.68863 19.4351 9.3983 19.495 9.1141C19.5196 9.04657 19.5339 8.9303 19.6256 8.93391C19.7141 8.93102 19.789 8.98988 19.86 9.03538C20.0708 9.18813 20.2737 9.35135 20.4806 9.50952C20.334 9.30405 20.1799 9.10399 20.0305 8.90105C19.9791 8.82088 19.911 8.73819 19.9152 8.63707C19.9195 8.55257 20.0194 8.52946 20.0847 8.50816C20.3697 8.45146 20.6597 8.42113 20.9469 8.3778C20.7057 8.34746 20.4657 8.30883 20.2249 8.27488C20.1229 8.25538 20.0066 8.24708 19.9288 8.16835C19.8824 8.06183 19.9648 7.95819 20.018 7.8726C20.1699 7.66605 20.3223 7.45913 20.4796 7.25655C20.2434 7.41363 20.0347 7.60827 19.7972 7.76246C19.7308 7.81085 19.6498 7.82421 19.5699 7.82385C19.4668 7.64041 19.4576 7.42591 19.4265 7.22224C19.4051 7.07455 19.3823 6.92685 19.3702 6.77808Z" fill="#FEFFFF"/>
<path d="M10.6295 6.79053C10.5567 7.07111 10.5428 7.36289 10.4818 7.646C10.4611 7.737 10.4041 7.87133 10.2881 7.81572C10.0024 7.6738 9.7727 7.44125 9.51051 7.26142C9.68281 7.53297 9.92039 7.76083 10.0584 8.05333C10.1194 8.15733 9.99458 8.21836 9.91432 8.24111C9.62966 8.30864 9.33644 8.32994 9.04785 8.37761C9.32966 8.42492 9.61539 8.44622 9.89435 8.50941C9.98424 8.52891 10.1219 8.59319 10.0577 8.70803C9.91111 8.99872 9.68138 9.23489 9.50053 9.50355C9.70528 9.35116 9.90362 9.19011 10.1108 9.04097C10.1957 8.98825 10.2892 8.90628 10.3955 8.93878C10.4643 9.01353 10.4875 9.11753 10.5039 9.21539C10.5371 9.46564 10.5892 9.71408 10.5956 9.96722C10.662 9.69169 10.6809 9.4075 10.7365 9.1298C10.7572 9.05866 10.7736 8.9655 10.8467 8.93083C10.957 8.92542 11.0479 8.9998 11.1357 9.05614C11.338 9.20311 11.5309 9.36308 11.7325 9.5115C11.6262 9.375 11.5259 9.23344 11.42 9.09622C11.3094 8.95033 11.1917 8.80264 11.141 8.62244C11.2284 8.5188 11.3643 8.49497 11.4899 8.47583C11.7193 8.44586 11.9479 8.41011 12.177 8.37797C11.9112 8.33608 11.6429 8.30791 11.3786 8.25772C11.2877 8.24617 11.2067 8.20067 11.1428 8.13494C11.1874 7.96233 11.2976 7.82005 11.4032 7.68139C11.5152 7.53911 11.6183 7.38997 11.7293 7.24697C11.486 7.42103 11.2634 7.62469 11.008 7.78033C10.9295 7.8363 10.7932 7.85183 10.769 7.72942C10.6812 7.42608 10.6509 7.10542 10.6295 6.79053Z" fill="#FEFFFF"/>
<path d="M14.8169 10.5807C14.8404 10.3358 14.9199 10.0935 14.8814 9.84546C14.799 9.90685 14.7266 9.98051 14.6631 10.0617C13.7306 11.1324 12.7878 12.1937 11.8518 13.2608C11.8083 13.3114 11.7615 13.3594 11.7145 13.4071L11.672 13.4529C11.6713 13.5107 11.661 13.5865 11.7209 13.6194C11.8432 13.6974 11.987 13.7285 12.1222 13.7747C12.8474 14.0134 13.5733 14.2495 14.2989 14.4879C14.4769 13.1861 14.6442 11.8832 14.8169 10.5807Z" fill="#FEFFFF"/>
<path d="M15.9831 11.1603C15.83 11.0263 15.6531 10.8949 15.4473 10.8671C15.2721 10.8577 15.1491 11.013 15.0759 11.1552C14.9168 11.4777 14.8387 11.8341 14.7777 12.1873C14.6382 12.9536 14.4945 13.7191 14.3564 14.4854C15.687 14.2099 17.0129 13.9102 18.3417 13.6267C17.5516 12.8084 16.7696 11.9822 15.9831 11.1603Z" fill="#FEFFFF"/>
<path d="M8.35139 11.4393C8.32214 11.2497 8.29467 11.0594 8.27433 10.8684C8.24187 11.1226 8.20049 11.3757 8.16447 11.6292C8.15305 11.7267 8.11381 11.8174 8.07207 11.9051C7.99895 11.9109 7.92225 11.9087 7.86054 11.8622C7.6119 11.7062 7.39324 11.5068 7.15423 11.3364C7.30869 11.5476 7.471 11.7527 7.62261 11.9662C7.67576 12.0492 7.74817 12.1424 7.71857 12.2478C7.64651 12.3204 7.54377 12.3428 7.4471 12.3587C7.19775 12.3962 6.94876 12.436 6.69727 12.4584C7.01226 12.5281 7.34187 12.5266 7.64829 12.631C7.74889 12.6678 7.73569 12.7974 7.68182 12.8689C7.52665 13.1221 7.32653 13.3434 7.16529 13.593C7.34401 13.4525 7.52451 13.3146 7.70465 13.1762C7.81167 13.0997 7.92475 13.0022 8.0653 13.0202C8.17303 13.1943 8.17303 13.4034 8.20692 13.5995C8.22903 13.7519 8.2515 13.9042 8.27469 14.057C8.30501 13.788 8.34461 13.5204 8.38848 13.2535C8.40275 13.1708 8.43236 13.0892 8.48587 13.0246C8.58718 13.0007 8.67921 13.0679 8.76019 13.1199C8.97065 13.2734 9.1747 13.4359 9.38231 13.5937C9.20966 13.342 9.00597 13.1123 8.84865 12.8498C8.81084 12.7956 8.82475 12.7277 8.82796 12.6667C9.02095 12.562 9.24319 12.5584 9.45365 12.5208C9.586 12.5017 9.71798 12.4789 9.85033 12.4598C9.57494 12.4324 9.30026 12.3937 9.02773 12.3442C8.94568 12.3237 8.82725 12.3038 8.8137 12.1998C8.82725 12.0915 8.8986 12.0044 8.95603 11.9163C9.10228 11.7192 9.24568 11.5198 9.39872 11.3281C9.1747 11.496 8.95817 11.6744 8.72808 11.8336C8.65282 11.8827 8.54758 11.9459 8.46161 11.8867C8.38456 11.7506 8.3735 11.5913 8.35139 11.4393Z" fill="#FEFFFF"/>
<path d="M21.693 10.8806C21.6773 11.1478 21.6316 11.4118 21.5892 11.6754C21.5742 11.7502 21.556 11.8264 21.5118 11.8899C21.4201 11.9452 21.3166 11.8766 21.2389 11.8267C21.0163 11.6682 20.8012 11.4985 20.5875 11.3277C20.7441 11.5548 20.9228 11.7653 21.0755 11.9957C21.1233 12.0636 21.1504 12.1427 21.1757 12.2214C21.1215 12.2828 21.0491 12.3243 20.9685 12.3388C20.6963 12.3948 20.4202 12.4283 20.1445 12.4594C20.4395 12.5248 20.7452 12.5331 21.0366 12.6139C21.1072 12.6248 21.1476 12.6815 21.1772 12.7418C21.0363 13.0563 20.7944 13.3066 20.5961 13.5835C20.7769 13.4597 20.9471 13.3214 21.1219 13.1892C21.231 13.1083 21.3459 13.0209 21.4861 13.0123C21.5264 13.0744 21.5699 13.1376 21.5795 13.2138C21.6327 13.494 21.6769 13.7767 21.6901 14.0624C21.7633 13.7713 21.7736 13.4691 21.8417 13.1773C21.8589 13.0877 21.9252 12.9823 22.029 13.0249C22.3176 13.1697 22.5445 13.4124 22.8177 13.5832C22.6536 13.3665 22.4849 13.1527 22.3301 12.9288C22.293 12.8617 22.2402 12.7894 22.2491 12.7082C22.2983 12.6201 22.4057 12.6009 22.4949 12.5811C22.7539 12.537 23.0146 12.5053 23.2732 12.4601C23.066 12.4399 22.8602 12.411 22.6547 12.3763C22.5063 12.3561 22.3369 12.342 22.2355 12.2149C22.36 11.8769 22.6326 11.6267 22.8245 11.3291C22.5966 11.5089 22.3711 11.6938 22.1296 11.8545C22.0625 11.9076 21.9784 11.9141 21.897 11.9008C21.7622 11.5776 21.7782 11.2172 21.693 10.8806Z" fill="#FEFFFF"/>
<path d="M13.2039 14.5828C12.727 14.1917 12.1587 13.9397 11.5908 13.7158C11.6847 13.8285 11.7785 13.9408 11.8766 14.0495C12.569 14.8295 13.2571 15.6134 13.9452 16.3978C14.2516 16.7517 14.5652 17.099 14.8698 17.454C14.7596 16.9488 14.5638 16.4664 14.3187 16.0135C14.0322 15.4777 13.6884 14.9555 13.2039 14.5828Z" fill="#FEFFFF"/>
<path d="M17.3651 14.2998C17.1968 14.1951 16.9959 14.1781 16.8029 14.1695C15.9732 14.1655 15.1677 14.3959 14.3516 14.5096C14.521 15.3445 14.7015 16.1776 14.8627 17.0139C14.8859 17.123 14.9277 17.232 15.0154 17.305C15.1998 17.2245 15.3375 17.0721 15.4738 16.9284C15.8166 16.5737 16.1145 16.179 16.4266 15.7977C16.7323 15.3933 17.0823 15.0145 17.2981 14.549C17.3348 14.4706 17.3573 14.3861 17.3651 14.2998Z" fill="#FEFFFF"/>
<path d="M20.9056 15.6235C20.8717 15.9059 20.8403 16.1894 20.7858 16.4685C20.7736 16.5527 20.7251 16.6224 20.6559 16.6686C20.5253 16.6213 20.4076 16.5455 20.2995 16.4584C20.1344 16.3273 19.9617 16.2064 19.7959 16.076C19.9649 16.3013 20.1394 16.5234 20.2981 16.7563C20.3423 16.8275 20.3987 16.9311 20.3399 17.0088C20.2129 17.0933 20.0559 17.0972 19.9107 17.1225C19.7213 17.1546 19.5312 17.1835 19.3389 17.1915C19.6731 17.28 20.0338 17.2554 20.3534 17.398C20.3919 17.5472 20.2896 17.6696 20.21 17.7826C20.0773 17.9621 19.9418 18.1394 19.8119 18.321C19.9821 18.1939 20.1504 18.0646 20.3188 17.9354C20.4326 17.8527 20.5492 17.7566 20.6959 17.7487C20.8057 17.8996 20.8086 18.0914 20.8389 18.2687C20.8671 18.4431 20.8903 18.6186 20.9056 18.7948C20.9613 18.5131 20.9852 18.2264 21.0401 17.9448C21.0544 17.857 21.1029 17.7794 21.1846 17.7429C21.496 17.8841 21.745 18.1289 22.0171 18.3315C21.8855 18.1318 21.7368 17.9444 21.5948 17.7526C21.5238 17.657 21.4667 17.5501 21.4478 17.4309C21.5099 17.3872 21.5748 17.3439 21.6508 17.332C21.9137 17.2763 22.1812 17.2496 22.4474 17.2182C22.1613 17.1373 21.8577 17.1395 21.5723 17.0546C21.4874 17.0337 21.4207 16.9423 21.4774 16.8596C21.6215 16.5747 21.8513 16.345 22.0221 16.0771C21.7478 16.2768 21.5006 16.5263 21.1863 16.6617C21.1657 16.6527 21.1243 16.6346 21.1036 16.6256C20.9666 16.3104 20.9837 15.9547 20.9056 15.6235Z" fill="#FEFFFF"/>
<path d="M9.22058 16.5595C9.12676 16.2565 9.12248 15.9326 9.06077 15.6221C9.02081 15.9117 8.99263 16.2038 8.93199 16.4905C8.91344 16.5512 8.89132 16.6458 8.8107 16.6418C8.69762 16.6523 8.60666 16.5718 8.51926 16.5111C8.32913 16.3631 8.13401 16.2215 7.94352 16.0742C8.11974 16.3075 8.30167 16.5382 8.46397 16.782C8.52747 16.8636 8.54887 17.0167 8.42117 17.047C8.12152 17.1351 7.80582 17.164 7.49512 17.1904C7.78585 17.2651 8.08906 17.2691 8.37907 17.3467C8.44043 17.3637 8.52354 17.3998 8.51641 17.4782C8.51534 17.5605 8.46005 17.6273 8.41974 17.6945C8.26885 17.9177 8.10012 18.1278 7.94138 18.3456C8.08656 18.2199 8.24495 18.1119 8.39441 17.9924C8.51177 17.9032 8.62771 17.8043 8.76933 17.757C8.86778 17.7331 8.91094 17.8465 8.93128 17.9227C8.99834 18.2094 9.01582 18.5048 9.06148 18.7952C9.11142 18.5157 9.12997 18.2307 9.1899 17.953C9.20488 17.874 9.24234 17.8021 9.29727 17.7447C9.4207 17.7721 9.53199 17.8353 9.63116 17.913C9.81202 18.0523 9.99323 18.1917 10.174 18.3315C10.021 18.1152 9.85411 17.9093 9.70429 17.6909C9.65934 17.6129 9.59228 17.528 9.61546 17.432C9.6679 17.3547 9.76636 17.342 9.84912 17.3215C10.1063 17.2745 10.3663 17.2377 10.6274 17.2222C10.3506 17.1481 10.0624 17.1373 9.78419 17.0727C9.71428 17.0506 9.60262 17.0279 9.61011 16.9315C9.62367 16.8177 9.70251 16.7256 9.7635 16.6339C9.89834 16.4468 10.0406 16.2652 10.1758 16.0785C9.94793 16.2435 9.73461 16.4295 9.5006 16.5855C9.41927 16.6429 9.25589 16.6931 9.22058 16.5595Z" fill="#FEFFFF"/>
<path d="M29.9555 18.2627C28.4395 18.2666 26.9235 18.262 25.4074 18.2652C25.4089 18.7372 25.4082 19.2091 25.4085 19.6811C25.4014 20.2983 25.4231 20.9165 25.3971 21.5333C24.0544 21.5289 22.7118 21.5333 21.3695 21.5314C21.3613 22.5946 21.3677 23.658 21.3652 24.7211C20.05 24.7266 18.7352 24.7208 17.42 24.724C17.425 25.8319 17.4182 26.9398 17.4229 28.0481C15.8034 28.0567 14.1836 28.0517 12.5638 28.0506C12.5627 26.9416 12.5624 25.8326 12.5638 24.7237C11.2468 24.7215 9.92952 24.7255 8.61256 24.7215C8.61006 23.6584 8.61291 22.5953 8.61077 21.5318C7.26669 21.5322 5.92261 21.5304 4.57853 21.5318C4.5739 20.4423 4.57711 19.3529 4.57711 18.2634C3.0586 18.2648 1.54009 18.2645 0.0215778 18.2634C0.0212212 18.3887 0.0205078 18.514 0.0205078 18.6393C1.41453 18.6519 2.8089 18.64 4.20328 18.6451C4.20078 19.731 4.20042 20.8165 4.20328 21.9023C5.54771 21.9059 6.89215 21.9009 8.23623 21.9048C8.23551 22.9206 8.23658 23.9364 8.23551 24.9523C8.24408 25.0014 8.21839 25.0729 8.27546 25.0996C9.57888 25.105 10.883 25.1007 12.1871 25.1021C12.1903 26.2122 12.1853 27.3226 12.1896 28.4326C14.0562 28.4359 15.9233 28.4323 17.7899 28.4344C17.7921 27.324 17.7889 26.2136 17.7913 25.1032C19.1072 25.101 20.4228 25.1021 21.7383 25.1032C21.7444 24.0365 21.7383 22.9701 21.7415 21.9038C23.086 21.9041 24.4304 21.9009 25.7745 21.9048C25.7766 20.819 25.777 19.7331 25.7745 18.6469C27.1678 18.6418 28.5615 18.6451 29.9548 18.6455C29.9548 18.5176 29.9548 18.3901 29.9555 18.2627Z" fill="#FEFFFF"/>
<path d="M12.5969 18.6248C12.5866 18.7717 12.5777 18.9191 12.5541 19.0646C12.5174 19.265 12.5138 19.4759 12.4164 19.6593C12.2709 19.7005 12.155 19.585 12.0422 19.512C11.8621 19.3744 11.6834 19.235 11.5018 19.0996C11.6641 19.339 11.8599 19.5535 12.0105 19.8009C12.0515 19.8731 12.1118 19.9822 12.0201 20.0418C11.8785 20.1165 11.7155 20.1263 11.5599 20.1494C11.3869 20.1718 11.215 20.1996 11.042 20.2234C11.2863 20.257 11.5307 20.292 11.7743 20.3288C11.8814 20.3426 11.9812 20.383 12.074 20.4368C12.0683 20.5914 11.9684 20.7159 11.8824 20.8355C11.7536 21.0059 11.6252 21.1767 11.4979 21.3486C11.7419 21.1782 11.9627 20.9752 12.2163 20.8199C12.2745 20.7744 12.3476 20.7791 12.4164 20.7853C12.5595 21.1099 12.5434 21.4772 12.6223 21.8199C12.6444 21.5487 12.684 21.2796 12.7289 21.0117C12.7428 20.9362 12.7632 20.86 12.8081 20.7972C12.8869 20.7459 12.9779 20.799 13.0464 20.8427C13.2826 20.9969 13.4948 21.1843 13.7242 21.3486C13.5993 21.185 13.4812 21.0164 13.355 20.8543C13.2783 20.7481 13.1948 20.6419 13.1541 20.5155C13.1413 20.4072 13.2711 20.3686 13.3532 20.3498C13.6282 20.2985 13.9061 20.2483 14.1861 20.249C14.1758 20.2209 14.1647 20.1931 14.1533 20.166L14.174 20.2411C13.9043 20.1602 13.62 20.1584 13.346 20.0963C13.2694 20.0808 13.2034 20.0367 13.1431 19.9876C13.1748 19.8269 13.2754 19.6962 13.3717 19.5694C13.4919 19.4149 13.604 19.2538 13.7231 19.0982C13.4809 19.2697 13.2597 19.4705 13.0075 19.6276C12.9483 19.6738 12.8734 19.6673 12.8031 19.6597C12.664 19.3329 12.6865 18.9653 12.5969 18.6248Z" fill="#FEFFFF"/>
<path d="M17.3717 18.6638C17.3089 18.9397 17.3018 19.2257 17.2333 19.5009C17.2186 19.563 17.1865 19.6189 17.1512 19.672C17.0838 19.6662 17.0139 19.659 16.9568 19.6175C16.7117 19.4619 16.4909 19.2708 16.2541 19.1033C16.38 19.2585 16.4931 19.4243 16.6165 19.5817C16.7075 19.7045 16.8127 19.8302 16.828 19.9894C16.736 20.0884 16.5987 20.1028 16.4742 20.1267C16.2462 20.1584 16.0186 20.1938 15.79 20.2234C16.044 20.2563 16.2972 20.2942 16.5505 20.3329C16.6468 20.3596 16.7877 20.3657 16.822 20.4813C16.8188 20.5968 16.7367 20.6893 16.6775 20.7817C16.5355 20.9702 16.3982 21.1623 16.2505 21.3465C16.4328 21.2111 16.6136 21.0742 16.7945 20.937C16.9012 20.8604 17.0125 20.7738 17.1494 20.7727C17.2479 20.9038 17.2597 21.0724 17.2861 21.2291C17.3135 21.4259 17.3371 21.6238 17.3731 21.8195C17.3934 21.5765 17.4345 21.3357 17.468 21.0944C17.4897 20.9883 17.4997 20.8666 17.5818 20.7882C17.6752 20.7499 17.7637 20.8225 17.84 20.868C18.0559 21.0226 18.2663 21.1851 18.4743 21.3501C18.3016 21.0825 18.0708 20.8536 17.9292 20.5665C17.88 20.4726 17.9549 20.3834 18.0459 20.3668C18.3405 20.2892 18.6473 20.2751 18.9466 20.2234C18.6544 20.1729 18.3559 20.1584 18.0673 20.0866C18.0084 20.0656 17.9217 20.0411 17.9167 19.9652C17.9096 19.8714 17.9731 19.7934 18.0188 19.7182C18.1625 19.516 18.3166 19.321 18.4582 19.117C18.2103 19.2864 17.9899 19.4972 17.728 19.6449C17.6488 19.6987 17.5422 19.6659 17.5204 19.5684C17.433 19.2755 17.4202 18.965 17.3717 18.6638Z" fill="#FEFFFF"/>
<path d="M29.2508 31.173C28.714 31.1509 28.2196 30.913 27.7281 30.7169C27.2529 30.9119 26.7728 31.138 26.2541 31.1715C25.6531 31.1925 25.097 30.9234 24.5466 30.7165C24.1281 30.8895 23.7083 31.0791 23.2588 31.1524C22.7405 31.2383 22.2333 31.0498 21.7546 30.8707C21.623 30.8259 21.4978 30.7563 21.3597 30.7346C21.2413 30.7483 21.1368 30.8155 21.0262 30.8559C20.5892 31.0267 20.1334 31.2105 19.6554 31.1683C19.1396 31.1199 18.6594 30.9032 18.1807 30.7176C17.645 30.9242 17.1045 31.2011 16.5156 31.1708C15.9802 31.1333 15.4844 30.9032 14.9878 30.7162C14.482 30.9227 13.968 31.1694 13.4115 31.1737C12.8462 31.16 12.3232 30.9141 11.8028 30.7162C11.2784 30.9281 10.7448 31.1914 10.1666 31.1726C9.62401 31.1412 9.12211 30.9072 8.61951 30.7183C8.08445 30.9274 7.54225 31.2033 6.95296 31.1704C6.41861 31.1336 5.92422 30.9014 5.42839 30.7151C4.84054 30.9606 4.21843 31.2596 3.56494 31.1488C3.10836 31.0661 2.67602 30.8863 2.24619 30.7151C1.86558 30.8772 1.48212 31.0408 1.07761 31.1325C0.719839 31.2116 0.347079 31.1683 0 31.0603V31.6128C0.754082 31.858 1.57736 31.645 2.24262 31.2485C2.74023 31.4785 3.25853 31.7125 3.81607 31.715C4.38751 31.7367 4.93899 31.5279 5.43017 31.2488C5.87249 31.4514 6.32409 31.6645 6.81492 31.7049C7.39778 31.7656 7.98315 31.5962 8.49146 31.3135C8.54745 31.2875 8.60845 31.2322 8.67052 31.2737C9.15243 31.5012 9.66146 31.7121 10.2019 31.7154C10.7669 31.7298 11.3155 31.5305 11.7992 31.2481C12.3189 31.4893 12.8629 31.7323 13.4472 31.7161C13.9684 31.7165 14.4727 31.5352 14.924 31.282C14.99 31.2261 15.0627 31.2849 15.1273 31.3102C15.5946 31.5341 16.0965 31.7244 16.6208 31.7157C17.1527 31.7193 17.6674 31.5326 18.1272 31.2737C18.1757 31.2373 18.2296 31.2737 18.276 31.2939C18.7611 31.5308 19.2858 31.7269 19.8323 31.7157C20.3749 31.7146 20.8935 31.511 21.3622 31.2485C21.6458 31.3785 21.9283 31.515 22.2287 31.602C22.6428 31.7284 23.0887 31.7533 23.5121 31.6605C23.8784 31.5919 24.2138 31.4211 24.5451 31.2575C24.6703 31.2947 24.7845 31.3622 24.9058 31.4106C25.3174 31.5973 25.7637 31.7287 26.2185 31.7154C26.7528 31.7085 27.2675 31.5146 27.7263 31.2477C27.9524 31.3698 28.1818 31.4882 28.4265 31.568C28.9212 31.7421 29.4688 31.7685 29.9735 31.6215C29.9696 31.4355 29.971 31.2503 29.9717 31.0646C29.7363 31.1257 29.4959 31.1834 29.2508 31.173Z" fill="#FEFFFF"/>
<path d="M29.1119 32.5289C28.6239 32.4795 28.1806 32.2512 27.725 32.0869C27.2392 32.2823 26.7498 32.5141 26.2194 32.5412C25.6312 32.5488 25.0907 32.2808 24.5482 32.0869C24.0278 32.2837 23.5077 32.5502 22.9387 32.5412C22.3865 32.5123 21.8739 32.2798 21.3646 32.0833C20.8602 32.2812 20.3536 32.534 19.8015 32.539C19.2332 32.5278 18.7039 32.2873 18.1834 32.0815C17.658 32.2873 17.1279 32.5542 16.5508 32.5401C16.0032 32.5087 15.4949 32.2758 14.9895 32.0808C14.4954 32.2863 13.9932 32.5217 13.4506 32.5416C12.8706 32.5362 12.3345 32.2823 11.8008 32.0815C11.3004 32.2884 10.7921 32.5307 10.2417 32.5416C9.67381 32.5322 9.15267 32.278 8.62759 32.0895C8.27016 32.2097 7.92986 32.3863 7.56031 32.4719C7.18684 32.5795 6.78625 32.5513 6.41742 32.4379C6.08211 32.3412 5.75715 32.2108 5.4329 32.0815C5.03053 32.2501 4.62604 32.4285 4.19584 32.5105C3.85483 32.5755 3.50453 32.5246 3.17564 32.4228C2.86103 32.3256 2.55354 32.2068 2.24892 32.0815C1.86759 32.2426 1.48378 32.4061 1.07927 32.499C0.72506 32.5784 0.356581 32.5329 0.0116425 32.4296C0.0105725 32.6156 0.0130692 32.8019 0.00878906 32.9883C0.447897 33.1136 0.920179 33.1154 1.36 32.9919C1.67247 32.9099 1.9664 32.7705 2.24784 32.6131C2.67019 32.8131 3.10396 33.011 3.57195 33.0652C4.2233 33.1522 4.87287 32.9384 5.43326 32.6145C5.87486 32.8196 6.32789 33.0287 6.81837 33.0706C7.42727 33.1399 8.03403 32.9424 8.56017 32.6434C8.62259 32.5936 8.69037 32.6499 8.75029 32.6734C9.16372 32.8713 9.59963 33.0424 10.0597 33.0757C10.6298 33.124 11.1962 32.9478 11.692 32.673C11.7434 32.6517 11.798 32.5972 11.854 32.6362C12.2628 32.8265 12.6826 33.0146 13.1346 33.0645C13.7838 33.1526 14.4319 32.9359 14.9909 32.6145C15.4304 32.82 15.883 33.0273 16.3713 33.0699C16.9282 33.1331 17.4878 32.9745 17.9805 32.7185C18.0479 32.6856 18.1099 32.6387 18.1834 32.6207C18.6079 32.8131 19.0406 33.0146 19.509 33.0655C20.1136 33.1428 20.7243 32.967 21.2511 32.6719C21.3011 32.651 21.356 32.5972 21.4106 32.6355C21.85 32.8427 22.3063 33.0431 22.7964 33.0749C23.4156 33.1331 24.0199 32.9121 24.5546 32.6149C25.0226 32.8416 25.5138 33.0543 26.0396 33.08C26.6185 33.1175 27.1846 32.9204 27.6851 32.6398C27.745 32.5928 27.8049 32.6622 27.8606 32.6828C28.4948 33.0388 29.2635 33.2013 29.9712 32.9879C29.9705 32.8037 29.9695 32.6199 29.9716 32.4361C29.6901 32.499 29.4019 32.5712 29.1119 32.5289Z" fill="#FEFFFF"/>
<path d="M29.9771 0H0V18.6377L0.0189076 18.6391C0.0189076 18.5138 0.019619 18.3885 0.0199757 18.2632C1.53849 18.2643 3.057 18.2646 4.57551 18.2632C4.57551 19.3527 4.5723 20.4421 4.57693 21.5316C5.92101 21.5302 7.26509 21.532 8.60917 21.5316C8.61131 22.5951 8.60846 23.6582 8.61096 24.7213C9.92793 24.7253 11.2452 24.7213 12.5622 24.7235C12.5608 25.8324 12.5611 26.9414 12.5622 28.0504C14.182 28.0515 15.8018 28.0565 17.4213 28.0479C17.4167 26.9396 17.4234 25.8317 17.4184 24.7238C18.7336 24.7206 20.0485 24.7264 21.3636 24.7209C21.3661 23.6578 21.3597 22.5944 21.3679 21.5312C22.7102 21.5331 24.0529 21.5287 25.3955 21.533C25.4216 20.9163 25.3998 20.298 25.4069 19.6809C25.4066 19.2089 25.4073 18.737 25.4059 18.265C26.9219 18.2617 28.4379 18.2664 29.9539 18.2625C29.9532 18.3899 29.9532 18.5174 29.9532 18.6452C29.965 18.6449 29.9878 18.6449 29.9992 18.6449V9.34772C29.9742 9.18197 29.9796 9.01441 29.981 8.84758C29.9803 5.89839 29.9792 2.94919 29.9771 0ZM15.367 1.56181C15.2454 1.6965 15.1137 1.82144 14.9868 1.95072C14.8694 1.82686 14.7385 1.71492 14.6318 1.58094L14.6322 1.55314C14.7388 1.41953 14.8708 1.30939 14.9853 1.183C15.1159 1.30578 15.24 1.43542 15.367 1.56181ZM17.3218 1.48706C17.407 1.64486 17.4962 1.80086 17.584 1.95722C17.4313 2.05075 17.2761 2.14067 17.1206 2.22914C17.03 2.07314 16.9454 1.91317 16.8502 1.76006C17.0054 1.66508 17.162 1.57336 17.3218 1.48706ZM13.1208 1.75969C13.037 1.92003 12.9428 2.07494 12.8536 2.23203C12.7013 2.13597 12.544 2.04786 12.3888 1.9565C12.4809 1.8005 12.5665 1.64053 12.6599 1.48561C12.8148 1.57481 12.9692 1.66508 13.1208 1.75969ZM15.5571 1.76042C15.4612 1.85286 15.3684 1.94928 15.2782 2.04786C15.3745 2.13742 15.4662 2.23203 15.5593 2.32556C15.5282 2.36058 15.5076 2.41764 15.4512 2.41403C15.3206 2.3028 15.2108 2.16847 15.0838 2.05256C15.2047 1.91714 15.3424 1.79869 15.4601 1.66039C15.4947 1.69144 15.5215 1.73008 15.5571 1.76042ZM14.8944 2.04858C14.7649 2.17208 14.6425 2.3028 14.5155 2.42919C14.4813 2.39525 14.4478 2.36022 14.4135 2.32628C14.5116 2.23708 14.6051 2.14355 14.6985 2.05003C14.6144 1.94567 14.518 1.8525 14.4171 1.76475C14.4496 1.73008 14.482 1.69578 14.5141 1.66147C14.6404 1.79111 14.7677 1.91967 14.8944 2.04858ZM16.7478 1.85503C16.8406 1.99478 16.9112 2.14825 17.0047 2.28764C16.852 2.392 16.6911 2.48336 16.526 2.56569C16.5085 2.52633 16.491 2.48733 16.4732 2.44797C16.5827 2.36455 16.7271 2.32664 16.8131 2.21469C16.7396 2.10781 16.6754 1.99478 16.6212 1.87669C16.6629 1.87164 16.7065 1.83769 16.7478 1.85503ZM13.3498 1.88067C13.2981 2.00669 13.2232 2.12044 13.1593 2.23997C13.2749 2.31003 13.3923 2.37792 13.5086 2.44653C13.4868 2.48589 13.4654 2.52525 13.4436 2.56533C13.2856 2.48661 13.1362 2.39128 12.9824 2.30461C13.0495 2.14031 13.149 1.99297 13.2353 1.83878C13.2738 1.85286 13.312 1.86658 13.3498 1.88067ZM15.8414 2.05219C15.7808 2.11394 15.7198 2.17605 15.6588 2.2378C15.5982 2.17497 15.5372 2.1125 15.4737 2.05219C15.5268 1.98214 15.5846 1.91533 15.6467 1.85322C15.7169 1.91425 15.7819 1.98069 15.8414 2.05219ZM14.5081 2.04606C14.4446 2.10997 14.3804 2.17317 14.3151 2.23528C14.2548 2.17389 14.1942 2.11322 14.1321 2.05328C14.1952 1.98394 14.2609 1.91714 14.3297 1.85358C14.3889 1.91786 14.4488 1.98178 14.5081 2.04606ZM16.5106 1.96481C16.5549 2.041 16.5952 2.12008 16.6287 2.20169C16.5513 2.2443 16.4717 2.28222 16.3901 2.31508C16.3494 2.24178 16.3091 2.16811 16.2698 2.09408C16.3487 2.04822 16.4293 2.00561 16.5106 1.96481ZM13.7115 2.09914C13.6673 2.171 13.6245 2.24394 13.5831 2.31797C13.5057 2.27897 13.413 2.25406 13.3545 2.18761C13.3719 2.10347 13.4351 2.03558 13.4732 1.95975C13.5524 2.00669 13.632 2.05328 13.7115 2.09914ZM17.6549 2.07242C17.671 2.10131 17.7024 2.15872 17.7181 2.18761C17.6057 2.25658 17.4926 2.32411 17.3767 2.38731C17.4431 2.50828 17.5119 2.6278 17.58 2.74805C17.5383 2.76936 17.498 2.79355 17.4563 2.81486C17.3632 2.66067 17.2783 2.50214 17.1891 2.34578C17.3443 2.25406 17.5023 2.16775 17.6549 2.07242ZM12.772 2.33603C12.7206 2.51225 12.6011 2.65633 12.5198 2.81883C12.4812 2.78994 12.4067 2.77947 12.4213 2.71483C12.4716 2.6018 12.5454 2.50105 12.5972 2.38839C12.488 2.32519 12.3796 2.26056 12.269 2.1988C12.2879 2.15655 12.3082 2.11503 12.3243 2.07169C12.4709 2.1645 12.6236 2.24719 12.772 2.33603ZM15.3702 2.52958C15.2429 2.65814 15.1162 2.78742 14.9882 2.91525C14.8737 2.78128 14.7264 2.67547 14.6272 2.52958C14.7246 2.38261 14.8748 2.28042 14.9864 2.14428C15.1177 2.26958 15.2436 2.39994 15.3702 2.52958ZM19.4756 2.23058C19.543 2.39597 19.6215 2.55667 19.6871 2.72278C19.5209 2.78922 19.3675 2.89142 19.1902 2.92644C19.1224 2.76575 19.0486 2.60758 18.979 2.44725C19.1438 2.37358 19.3054 2.29089 19.4756 2.23058ZM10.9984 2.44833C10.926 2.61083 10.8543 2.77405 10.7794 2.93547C10.6117 2.87083 10.4484 2.79536 10.2846 2.72025C10.3656 2.55703 10.4309 2.38622 10.5118 2.223C10.6724 2.30208 10.8357 2.37394 10.9984 2.44833ZM12.4117 2.43714C12.3735 2.52164 12.3279 2.60217 12.2761 2.67872C12.203 2.63611 12.1299 2.59386 12.0568 2.55089C12.096 2.47144 12.1356 2.39128 12.187 2.31906C12.269 2.34108 12.3375 2.39778 12.4117 2.43714ZM17.7955 2.314C17.834 2.39272 17.8929 2.46603 17.9029 2.5563C17.8376 2.60542 17.763 2.63936 17.6885 2.67222C17.6482 2.59458 17.605 2.51839 17.5604 2.44292C17.6346 2.39272 17.7149 2.35228 17.7955 2.314ZM17.0692 2.41836C17.1623 2.57328 17.2519 2.73 17.3385 2.88889C17.1787 2.97158 17.0357 3.09292 16.8606 3.14203C16.7778 2.99144 16.6979 2.83905 16.6055 2.69389C16.7553 2.59458 16.9119 2.50575 17.0692 2.41836ZM13.3673 2.69028C13.2881 2.84555 13.1936 2.99217 13.1123 3.146C12.9417 3.08533 12.7951 2.97555 12.6382 2.88708C12.7252 2.73144 12.8119 2.57508 12.9011 2.42053C13.062 2.50033 13.2171 2.59205 13.3673 2.69028ZM18.8499 2.50106C18.9284 2.66644 19.004 2.83328 19.0779 3.00083C18.9127 3.07197 18.7529 3.15828 18.5813 3.21353C18.5667 3.18464 18.5371 3.12686 18.5225 3.09833C18.6459 3.03911 18.7707 2.98458 18.8956 2.92897C18.8456 2.8033 18.7918 2.67908 18.7322 2.55775C18.7718 2.53897 18.8107 2.51983 18.8499 2.50106ZM11.2406 2.55522C11.1914 2.68125 11.1332 2.80367 11.0769 2.92644C11.201 2.98061 11.3251 3.0355 11.4479 3.09219C11.4322 3.13264 11.4165 3.17308 11.4001 3.21353C11.2288 3.16767 11.0783 3.06836 10.9117 3.00914C10.9634 2.83364 11.0487 2.67114 11.1207 2.50394C11.1507 2.51658 11.2106 2.54222 11.2406 2.55522ZM18.5999 2.62239C18.6626 2.67981 18.6787 2.77983 18.7197 2.85567C18.6377 2.89394 18.5556 2.93222 18.4736 2.9705C18.4351 2.88997 18.4005 2.80728 18.3726 2.72242C18.4483 2.68847 18.5214 2.64803 18.5999 2.62239ZM11.6176 2.73433C11.577 2.81197 11.537 2.89033 11.4953 2.96797C11.4207 2.93114 11.3455 2.89539 11.2695 2.86108C11.293 2.77406 11.328 2.69028 11.3683 2.61011C11.4511 2.65236 11.5345 2.69317 11.6176 2.73433ZM19.751 2.85314C19.7674 2.89142 19.7838 2.92969 19.7998 2.96797C19.6793 3.02105 19.5598 3.0763 19.4413 3.13372C19.4934 3.25975 19.5469 3.38505 19.6022 3.51C19.5587 3.52769 19.5152 3.54539 19.4717 3.56308C19.4017 3.39661 19.324 3.23375 19.2594 3.06475C19.4253 2.9983 19.5812 2.90875 19.751 2.85314ZM10.7038 3.05861C10.6688 3.23917 10.5679 3.39661 10.499 3.56489C10.4583 3.54575 10.4177 3.52661 10.3763 3.50783C10.4273 3.38217 10.4808 3.25758 10.54 3.13589C10.4205 3.0745 10.2975 3.02033 10.174 2.96689C10.1937 2.92789 10.2129 2.88853 10.2318 2.84953C10.3931 2.91055 10.544 2.99505 10.7038 3.05861ZM19.8612 3.10158C19.8947 3.18139 19.9293 3.26011 19.965 3.33847C19.8879 3.38505 19.8045 3.42117 19.7139 3.42911C19.6818 3.35364 19.65 3.2778 19.6186 3.20233C19.6953 3.159 19.7763 3.12361 19.8612 3.10158ZM10.3738 3.20342C10.3235 3.28286 10.2818 3.367 10.2457 3.45439C10.1737 3.41647 10.1002 3.38253 10.0246 3.35183C10.0399 3.26047 10.0799 3.17669 10.1241 3.09653C10.2076 3.13155 10.291 3.1673 10.3738 3.20342ZM19.3358 3.63169C19.1806 3.69164 19.0368 3.78228 18.876 3.82633L18.8517 3.81514C18.7796 3.66636 18.7072 3.51505 18.6569 3.35725C18.7957 3.25253 18.9776 3.21136 19.1296 3.12289C19.2038 3.28972 19.2933 3.45258 19.3358 3.63169ZM11.3362 3.35147C11.267 3.51036 11.1892 3.66528 11.1275 3.82742C10.9488 3.79094 10.789 3.69453 10.6249 3.61725C10.7005 3.4533 10.7733 3.28828 10.8439 3.12253C11.0059 3.20378 11.175 3.2695 11.3362 3.35147ZM21.6811 3.97619C21.506 4.00978 21.3422 4.09428 21.1635 4.10728C21.1018 3.94189 21.0761 3.76494 21.0198 3.59739C21.1878 3.54358 21.3615 3.50892 21.5274 3.44789C21.6023 3.6158 21.6308 3.79997 21.6811 3.97619ZM8.95304 3.59522C8.90702 3.76747 8.86279 3.94008 8.82034 4.11342C8.64235 4.07694 8.46863 4.02242 8.29241 3.97728C8.33807 3.81153 8.39372 3.6483 8.41548 3.47714C8.60132 3.47244 8.77575 3.55008 8.95304 3.59522ZM9.20844 3.66817C9.17634 3.79636 9.14281 3.92455 9.10678 4.05203C9.23199 4.08778 9.35755 4.12136 9.48418 4.15061C9.48061 4.19792 9.47669 4.24522 9.47205 4.29253C9.29726 4.25317 9.12462 4.20369 8.95126 4.15711C8.98764 3.978 9.04008 3.8025 9.08681 3.62592C9.12747 3.64 9.16849 3.65408 9.20844 3.66817ZM21.0287 4.15855C20.8536 4.20008 20.6809 4.25208 20.505 4.29217C20.4976 4.24522 20.4901 4.19864 20.4826 4.15205C20.6106 4.12425 20.7373 4.08994 20.8632 4.05239C20.8346 3.92455 20.799 3.79853 20.7662 3.67178C20.7954 3.65986 20.8536 3.63603 20.8828 3.62411C20.9467 3.7978 20.9873 3.97872 21.0287 4.15855ZM9.59119 3.75953C9.58263 3.85089 9.56194 3.94044 9.53269 4.02747C9.44779 4.00328 9.3629 3.97836 9.278 3.95344C9.29869 3.86786 9.31938 3.783 9.33722 3.69705C9.4214 3.72017 9.50629 3.74075 9.59119 3.75953ZM20.6345 3.6985C20.662 3.78444 20.6802 3.87328 20.6873 3.96355C20.6039 3.98233 20.52 4.00111 20.4369 4.02205C20.4173 3.93539 20.3955 3.84908 20.3756 3.76278C20.4626 3.74436 20.5493 3.72342 20.6345 3.6985ZM21.7236 4.11883C21.73 4.1488 21.7428 4.20839 21.7496 4.238C21.624 4.2723 21.4992 4.30842 21.3729 4.33983C21.3965 4.47705 21.4393 4.60994 21.4699 4.74536C21.4229 4.7515 21.3754 4.75728 21.3276 4.76305C21.2895 4.59117 21.2409 4.42217 21.1974 4.25172C21.3722 4.20586 21.5449 4.1488 21.7236 4.11883ZM8.77575 4.25136C8.7408 4.42397 8.68765 4.59225 8.64627 4.76342C8.59954 4.758 8.55317 4.75258 8.50608 4.74717C8.53819 4.61464 8.56779 4.48103 8.61631 4.35319C8.48575 4.30805 8.35198 4.27411 8.21964 4.23547C8.23035 4.20586 8.25139 4.14664 8.26209 4.11703C8.43581 4.15097 8.60596 4.20153 8.77575 4.25136ZM21.0736 4.30083C21.1147 4.47236 21.1675 4.64172 21.1931 4.81686C21.0223 4.85694 20.8564 4.91797 20.6823 4.94361C20.6395 4.77172 20.5928 4.60128 20.5479 4.43011C20.7216 4.38064 20.8935 4.32142 21.0736 4.30083ZM9.41926 4.42469C9.38965 4.59622 9.34363 4.76486 9.29798 4.93278C9.11962 4.93783 8.95268 4.8443 8.77718 4.81578C8.81178 4.63992 8.85958 4.4673 8.90988 4.29578C9.08217 4.32864 9.24982 4.38064 9.41926 4.42469ZM21.7953 4.38064C21.8124 4.46622 21.8334 4.55036 21.8559 4.6345C21.7714 4.65905 21.6872 4.68361 21.6034 4.71033C21.5752 4.62042 21.5581 4.52761 21.5466 4.43444C21.628 4.41061 21.7114 4.39364 21.7953 4.38064ZM8.44152 4.43733C8.42154 4.52219 8.40085 4.60742 8.38231 4.69264C8.29598 4.68578 8.21108 4.66555 8.12868 4.63811C8.14688 4.54819 8.16899 4.45972 8.19289 4.37161C8.27565 4.39436 8.35841 4.41639 8.44152 4.43733ZM14.9839 5.22492C15.0228 5.47697 15.0588 5.72939 15.0973 5.98144C15.1173 6.07894 15.1337 6.19197 15.2143 6.25914C15.3199 6.27286 15.4095 6.19883 15.4944 6.14683C15.6988 5.99553 15.8999 5.8388 16.0997 5.68064C15.9335 5.92439 15.738 6.14719 15.5842 6.39961C15.5382 6.46822 15.4915 6.59569 15.5946 6.6365C15.891 6.75711 16.2224 6.73472 16.5277 6.82247C16.2599 6.8528 15.9909 6.88314 15.7269 6.93839C15.652 6.95139 15.5882 6.994 15.525 7.03372C15.5372 7.17419 15.6206 7.29083 15.6991 7.40133C15.8322 7.58225 15.9698 7.75991 16.1043 7.94011C15.9024 7.79205 15.7084 7.63353 15.5065 7.48547C15.4141 7.41469 15.3078 7.35222 15.1869 7.37425C15.1566 7.44033 15.1205 7.50533 15.1077 7.57828C15.0574 7.85019 15.0338 8.12644 14.9835 8.39836C14.9436 8.1073 14.9197 7.81264 14.8541 7.52591C14.8334 7.46416 14.8155 7.37028 14.7339 7.37136C14.6193 7.36486 14.5273 7.44864 14.4371 7.50822C14.248 7.65555 14.0586 7.80216 13.8649 7.94264C14.0258 7.74041 14.1792 7.53241 14.3311 7.32297C14.3907 7.23558 14.466 7.13303 14.4299 7.02C14.3126 6.93116 14.1603 6.92286 14.0212 6.89758C13.821 6.86761 13.6206 6.83619 13.4183 6.82392C13.7522 6.73653 14.1135 6.76325 14.4307 6.61375C14.4417 6.54261 14.4399 6.46786 14.3964 6.40719C14.2416 6.15008 14.0433 5.9233 13.8699 5.67883C14.0739 5.83555 14.2762 5.9948 14.4831 6.14755C14.5794 6.20822 14.6989 6.30608 14.8113 6.22519C14.9236 5.90417 14.9311 5.55858 14.9839 5.22492ZM19.3704 6.77805C19.3825 6.92683 19.4053 7.07453 19.4267 7.22222C19.4577 7.42589 19.467 7.64039 19.5701 7.82383C19.65 7.82419 19.731 7.81083 19.7973 7.76244C20.0349 7.60825 20.2436 7.41361 20.4797 7.25653C20.3224 7.45911 20.1701 7.66603 20.0181 7.87258C19.965 7.95816 19.8826 8.0618 19.929 8.16833C20.0067 8.24705 20.123 8.25536 20.225 8.27486C20.4658 8.3088 20.7059 8.34744 20.947 8.37778C20.6599 8.42111 20.3699 8.45144 20.0848 8.50814C20.0196 8.52944 19.9197 8.55255 19.9154 8.63705C19.9111 8.73816 19.9793 8.82086 20.0306 8.90103C20.1801 9.10397 20.3342 9.30402 20.4808 9.5095C20.2739 9.35133 20.0709 9.18811 19.8601 9.03536C19.7891 8.98986 19.7142 8.931 19.6258 8.93389C19.5341 8.93027 19.5198 9.04655 19.4952 9.11408C19.4353 9.39828 19.4025 9.68861 19.3704 9.97714C19.3122 9.6738 19.2969 9.36216 19.2223 9.06172C19.2077 8.97216 19.1235 8.89814 19.0336 8.94472C18.759 9.07508 18.5485 9.30691 18.2927 9.46833C18.3973 9.28489 18.5428 9.12997 18.6616 8.95591C18.7286 8.8548 18.8189 8.75369 18.8214 8.6255C18.7786 8.53053 18.6648 8.51644 18.576 8.49369C18.3145 8.44855 18.0509 8.4175 17.7884 8.37778C18.0438 8.34094 18.2995 8.3088 18.5542 8.26728C18.6452 8.24308 18.7654 8.23622 18.815 8.14161C18.8353 8.04375 18.7654 7.95925 18.7179 7.88125C18.5703 7.66891 18.4119 7.46453 18.2524 7.26086C18.5139 7.4248 18.7329 7.65194 19.0051 7.79964C19.0839 7.84983 19.1938 7.82022 19.2127 7.72164C19.299 7.41433 19.3111 7.09114 19.3704 6.77805ZM10.6292 6.79069C10.6506 7.10558 10.6809 7.42625 10.7687 7.72958C10.7929 7.852 10.9292 7.83647 11.0077 7.7805C11.2631 7.62486 11.4857 7.42119 11.7289 7.24714C11.618 7.39014 11.5149 7.53928 11.4029 7.68155C11.2973 7.82022 11.1871 7.9625 11.1425 8.13511C11.2064 8.20083 11.2873 8.24633 11.3783 8.25789C11.6426 8.30808 11.9109 8.33625 12.1766 8.37814C11.9476 8.41028 11.7189 8.44603 11.4896 8.476C11.364 8.49514 11.2281 8.51897 11.1407 8.62261C11.1914 8.8028 11.3091 8.9505 11.4197 9.09639C11.5256 9.23361 11.6259 9.37516 11.7321 9.51166C11.5306 9.36325 11.3376 9.20327 11.1354 9.0563C11.0476 8.99997 10.9567 8.92558 10.8464 8.931C10.7733 8.96566 10.7569 9.05883 10.7362 9.12997C10.6806 9.40766 10.6617 9.69186 10.5953 9.96739C10.5889 9.71425 10.5368 9.4658 10.5036 9.21555C10.4872 9.11769 10.464 9.01369 10.3952 8.93894C10.2889 8.90644 10.1954 8.98841 10.1105 9.04114C9.90331 9.19028 9.70498 9.35133 9.50023 9.50372C9.68108 9.23505 9.9108 8.99889 10.0574 8.70819C10.1216 8.59336 9.98393 8.52908 9.89404 8.50958C9.61509 8.44639 9.32937 8.42508 9.04757 8.37778C9.33615 8.33011 9.62936 8.3088 9.91401 8.24128C9.99427 8.21853 10.1191 8.1575 10.0581 8.0535C9.92008 7.761 9.68251 7.53314 9.51022 7.26158C9.7724 7.44141 10.0021 7.67397 10.2878 7.81589C10.4038 7.8715 10.4608 7.73716 10.4815 7.64616C10.5425 7.36305 10.5564 7.07128 10.6292 6.79069ZM15.1312 9.81969C16.0851 10.9121 17.0496 11.9947 18.0027 13.0881C18.1419 13.2481 18.2995 13.3951 18.414 13.5752C18.4583 13.7482 18.2888 13.8612 18.1943 13.9786C17.6025 14.6662 16.9893 15.3349 16.4011 16.0257C15.9863 16.4829 15.5803 16.948 15.1747 17.4139C15.1159 17.4789 15.0456 17.5648 14.9465 17.5334C14.8484 17.4731 14.7699 17.385 14.6957 17.2972C14.5405 17.0964 14.3547 16.9235 14.1974 16.7245C14.116 16.6136 13.9826 16.5374 13.9455 16.3977C13.2574 15.6134 12.5693 14.8294 11.877 14.0494C11.7332 13.9533 11.6312 13.7991 11.5356 13.6561C11.5823 13.5669 11.6069 13.4413 11.7136 13.407C11.7607 13.3593 11.8074 13.3113 11.8509 13.2607C12.7869 12.1936 13.7297 11.1323 14.6622 10.0616C14.7114 9.94427 14.8009 9.8493 14.9001 9.77311C14.9753 9.73303 15.0774 9.7518 15.1312 9.81969ZM8.35163 11.4393C8.37374 11.5913 8.3848 11.7506 8.46185 11.8867C8.54782 11.9459 8.65305 11.8827 8.72831 11.8336C8.95839 11.6744 9.17491 11.496 9.39893 11.3281C9.2459 11.5198 9.1025 11.7191 8.95625 11.9163C8.89882 12.0044 8.82748 12.0914 8.81392 12.1998C8.82748 12.3038 8.94591 12.3236 9.02795 12.3442C9.30047 12.3937 9.57514 12.4323 9.85052 12.4598C9.71818 12.4789 9.5862 12.5017 9.45386 12.5208C9.2434 12.5584 9.02117 12.562 8.82819 12.6667C8.82498 12.7277 8.81107 12.7956 8.84888 12.8498C9.00619 13.1123 9.20987 13.342 9.38252 13.5937C9.17491 13.4359 8.97087 13.2734 8.76042 13.1199C8.67945 13.0679 8.58741 13.0007 8.48611 13.0246C8.4326 13.0892 8.40299 13.1708 8.38873 13.2535C8.34485 13.5204 8.30526 13.7879 8.27493 14.057C8.25175 13.9042 8.22928 13.7518 8.20716 13.5994C8.17327 13.4034 8.17327 13.1943 8.06555 13.0202C7.925 13.0022 7.81193 13.0997 7.70491 13.1762C7.52478 13.3145 7.34428 13.4525 7.16557 13.5929C7.3268 13.3434 7.52692 13.1221 7.68208 12.8689C7.73595 12.7974 7.74915 12.6678 7.64855 12.6309C7.34214 12.5266 7.01254 12.528 6.69757 12.4583C6.94905 12.4359 7.19803 12.3962 7.44737 12.3587C7.54404 12.3428 7.64677 12.3204 7.71883 12.2478C7.74843 12.1424 7.67602 12.0492 7.62287 11.9661C7.47127 11.7527 7.30897 11.5476 7.15451 11.3364C7.39351 11.5068 7.61217 11.7061 7.8608 11.8621C7.92251 11.9087 7.9992 11.9109 8.07232 11.9051C8.11406 11.8174 8.1533 11.7267 8.16471 11.6292C8.20074 11.3757 8.24212 11.1226 8.27458 10.8684C8.29491 11.0594 8.32238 11.2497 8.35163 11.4393ZM21.6918 10.8806C21.7771 11.2172 21.761 11.5776 21.8959 11.9008C21.9772 11.9141 22.0614 11.9076 22.1284 11.8546C22.3699 11.6939 22.5954 11.509 22.8233 11.3291C22.6314 11.6267 22.3589 11.8769 22.2344 12.2149C22.3357 12.3421 22.5051 12.3561 22.6535 12.3764C22.859 12.411 23.0648 12.4399 23.272 12.4601C23.0134 12.5053 22.7527 12.5371 22.4937 12.5811C22.4045 12.601 22.2972 12.6201 22.2479 12.7082C22.239 12.7895 22.2918 12.8617 22.3289 12.9289C22.4837 13.1527 22.6524 13.3665 22.8165 13.5832C22.5433 13.4124 22.3164 13.1697 22.0278 13.0249C21.924 12.9823 21.8577 13.0877 21.8406 13.1773C21.7724 13.4691 21.7621 13.7713 21.689 14.0624C21.6758 13.7767 21.6315 13.494 21.5784 13.2138C21.5688 13.1376 21.5252 13.0744 21.4849 13.0123C21.3447 13.0209 21.2299 13.1083 21.1207 13.1892C20.9459 13.3214 20.7758 13.4597 20.5949 13.5836C20.7933 13.3066 21.0351 13.0563 21.176 12.7418C21.1464 12.6815 21.1061 12.6248 21.0355 12.614C20.744 12.5331 20.4383 12.5248 20.1433 12.4594C20.4191 12.4284 20.6952 12.3948 20.9673 12.3388C21.048 12.3244 21.1204 12.2828 21.1746 12.2214C21.1493 12.1427 21.1222 12.0636 21.0744 11.9957C20.9217 11.7654 20.743 11.5548 20.5864 11.3277C20.8 11.4985 21.0151 11.6682 21.2377 11.8267C21.3155 11.8766 21.4189 11.9452 21.5106 11.8899C21.5548 11.8264 21.573 11.7502 21.588 11.6754C21.6305 11.4118 21.6761 11.1479 21.6918 10.8806ZM20.9049 15.6235C20.983 15.9546 20.9659 16.3103 21.1029 16.6256C21.1236 16.6346 21.165 16.6526 21.1856 16.6617C21.4999 16.5262 21.7471 16.2767 22.0214 16.077C21.8506 16.345 21.6208 16.5746 21.4767 16.8596C21.42 16.9422 21.4867 17.0336 21.5716 17.0546C21.857 17.1394 22.1605 17.1372 22.4466 17.2181C22.1805 17.2496 21.913 17.2763 21.6501 17.3319C21.5741 17.3438 21.5092 17.3871 21.4471 17.4308C21.466 17.55 21.5231 17.6569 21.5941 17.7526C21.736 17.9443 21.8848 18.1317 22.0164 18.3314C21.7443 18.1289 21.4953 17.884 21.1839 17.7428C21.1022 17.7793 21.0537 17.8569 21.0394 17.9447C20.9845 18.2264 20.9606 18.5131 20.9049 18.7947C20.8896 18.6185 20.8664 18.443 20.8382 18.2686C20.8079 18.0913 20.805 17.8996 20.6952 17.7486C20.5486 17.7566 20.4319 17.8526 20.3181 17.9353C20.1498 18.0646 19.9814 18.1939 19.8112 18.321C19.9411 18.1393 20.0766 17.962 20.2093 17.7826C20.2889 17.6695 20.3913 17.5471 20.3527 17.398C20.0331 17.2553 19.6725 17.2799 19.3383 17.1914C19.5305 17.1835 19.7206 17.1546 19.9101 17.1224C20.0552 17.0972 20.2122 17.0932 20.3392 17.0087C20.398 16.9311 20.3417 16.8274 20.2974 16.7563C20.1387 16.5234 19.9643 16.3013 19.7952 16.0759C19.9611 16.2063 20.1337 16.3273 20.2989 16.4584C20.407 16.5454 20.5247 16.6212 20.6552 16.6685C20.7244 16.6223 20.7729 16.5526 20.7851 16.4685C20.8396 16.1893 20.871 15.9059 20.9049 15.6235ZM9.22057 16.5595C9.25588 16.6931 9.41926 16.6429 9.50059 16.5855C9.73459 16.4295 9.9479 16.2435 10.1758 16.0785C10.0406 16.2652 9.89832 16.4468 9.76348 16.6339C9.70249 16.7256 9.62365 16.8177 9.6101 16.9314C9.60261 17.0278 9.71425 17.0506 9.78417 17.0726C10.0624 17.1372 10.3506 17.1481 10.6274 17.2221C10.3663 17.2376 10.1063 17.2745 9.84909 17.3214C9.76633 17.342 9.66788 17.3546 9.61545 17.4319C9.59226 17.528 9.65932 17.6128 9.70427 17.6908C9.85409 17.9093 10.021 18.1151 10.174 18.3314C9.9932 18.1917 9.81199 18.0523 9.63114 17.9129C9.53198 17.8353 9.42068 17.7721 9.29726 17.7446C9.24233 17.8021 9.20488 17.8739 9.18989 17.953C9.12997 18.2307 9.11142 18.5156 9.06148 18.7951C9.01582 18.5048 8.99834 18.2094 8.93128 17.9227C8.91095 17.8465 8.86779 17.7331 8.76933 17.7569C8.62772 17.8042 8.51179 17.9032 8.39443 17.9924C8.24497 18.1119 8.08659 18.2199 7.94141 18.3455C8.10015 18.1278 8.26887 17.9176 8.41976 17.6944C8.46007 17.6273 8.51536 17.5605 8.51643 17.4781C8.52356 17.3998 8.44045 17.3637 8.37909 17.3467C8.08909 17.2691 7.78589 17.2651 7.49517 17.1903C7.80586 17.164 8.12155 17.1351 8.42119 17.047C8.54889 17.0166 8.52749 16.8635 8.46399 16.7819C8.30169 16.5382 8.11977 16.3074 7.94355 16.0741C8.13404 16.2215 8.32915 16.363 8.51928 16.5111C8.60668 16.5717 8.69764 16.6523 8.81071 16.6418C8.89133 16.6458 8.91344 16.5512 8.93199 16.4905C8.99263 16.2038 9.02081 15.9116 9.06077 15.622C9.12248 15.9326 9.12676 16.2565 9.22057 16.5595ZM12.5961 18.6247C12.6856 18.9652 12.6632 19.3328 12.8023 19.6596C12.8725 19.6672 12.9475 19.6737 13.0067 19.6275C13.2589 19.4704 13.48 19.2696 13.7222 19.0981C13.6031 19.2537 13.4911 19.4148 13.3709 19.5693C13.2746 19.6961 13.174 19.8268 13.1422 19.9875C13.2025 20.0366 13.2685 20.0807 13.3452 20.0962C13.6191 20.1583 13.9034 20.1601 14.1731 20.241L14.1524 20.1659C14.1638 20.193 14.1749 20.2208 14.1852 20.2489C13.9052 20.2482 13.6273 20.2984 13.3523 20.3497C13.2703 20.3685 13.1404 20.4071 13.1533 20.5154C13.1939 20.6418 13.2774 20.748 13.3541 20.8542C13.4804 21.0163 13.5984 21.1849 13.7233 21.3485C13.4939 21.1842 13.2817 20.9968 13.0456 20.8426C12.9771 20.7989 12.8861 20.7458 12.8073 20.7971C12.7623 20.8599 12.742 20.9361 12.7281 21.0116C12.6831 21.2795 12.6435 21.5486 12.6214 21.8198C12.5426 21.4771 12.5586 21.1098 12.4156 20.7852C12.3468 20.7791 12.2736 20.7744 12.2155 20.8199C11.9619 20.9751 11.7411 21.1781 11.4971 21.3485C11.6244 21.1766 11.7528 21.0058 11.8816 20.8354C11.9676 20.7159 12.0675 20.5913 12.0732 20.4367C11.9804 20.3829 11.8805 20.3425 11.7735 20.3287C11.5299 20.2919 11.2856 20.2569 11.0412 20.2233C11.2142 20.1995 11.3861 20.1717 11.5591 20.1493C11.7147 20.1262 11.8777 20.1164 12.0193 20.0417C12.111 19.9821 12.0507 19.873 12.0097 19.8008C11.8591 19.5534 11.6633 19.3389 11.501 19.0995C11.6826 19.2349 11.8613 19.3743 12.0414 19.5119C12.1541 19.5849 12.2701 19.7004 12.4156 19.6592C12.513 19.4758 12.5166 19.2649 12.5533 19.0645C12.5768 18.919 12.5858 18.7716 12.5961 18.6247ZM17.371 18.6637C17.4195 18.9648 17.4324 19.2754 17.5198 19.5682C17.5415 19.6657 17.6482 19.6986 17.7274 19.6448C17.9892 19.4971 18.2096 19.2862 18.4575 19.1169C18.3159 19.3209 18.1618 19.5159 18.0181 19.7181C17.9724 19.7932 17.9089 19.8712 17.9161 19.9651C17.921 20.0409 18.0077 20.0655 18.0666 20.0864C18.3552 20.1583 18.6537 20.1727 18.9459 20.2233C18.6466 20.2749 18.3398 20.289 18.0452 20.3667C17.9542 20.3833 17.8793 20.4725 17.9285 20.5664C18.0702 20.8534 18.3009 21.0824 18.4736 21.35C18.2656 21.1849 18.0552 21.0224 17.8394 20.8679C17.763 20.8224 17.6746 20.7498 17.5811 20.7881C17.4991 20.8664 17.4891 20.9881 17.4673 21.0943C17.4338 21.3355 17.3928 21.5764 17.3724 21.8194C17.3364 21.6237 17.3129 21.4258 17.2854 21.229C17.259 21.0723 17.2472 20.9036 17.1488 20.7726C17.0118 20.7736 16.9005 20.8603 16.7938 20.9369C16.613 21.0741 16.4321 21.2109 16.2499 21.3464C16.3975 21.1622 16.5349 20.9701 16.6768 20.7816C16.7361 20.6891 16.8181 20.5967 16.8213 20.4811C16.7871 20.3656 16.6462 20.3594 16.5499 20.3327C16.2966 20.2941 16.0433 20.2562 15.7894 20.2233C16.018 20.1937 16.2456 20.1583 16.4735 20.1265C16.598 20.1027 16.7353 20.0882 16.8274 19.9893C16.812 19.83 16.7068 19.7044 16.6158 19.5816C16.4924 19.4242 16.3794 19.2584 16.2534 19.1031C16.4903 19.2707 16.7111 19.4617 16.9562 19.6174C17.0132 19.6589 17.0831 19.6661 17.1506 19.6719C17.1859 19.6188 17.218 19.5628 17.2326 19.5007C17.3011 19.2256 17.3082 18.9396 17.371 18.6637Z" fill="#0093DD"/>
<path d="M15.1319 9.81966C15.078 9.75177 14.976 9.73299 14.9007 9.77307C14.8015 9.84927 14.712 9.94424 14.6628 10.0616C14.7263 9.98035 14.7987 9.90668 14.8811 9.8453C14.9196 10.0934 14.8401 10.3357 14.8165 10.5805C14.6439 11.8831 14.4766 13.186 14.2986 14.4878C13.573 14.2494 12.8471 14.0133 12.1218 13.7746C11.9867 13.7283 11.8429 13.6973 11.7205 13.6193C11.6606 13.5864 11.671 13.5106 11.6717 13.4528L11.7141 13.407C11.6075 13.4413 11.5828 13.5669 11.5361 13.6561C11.6317 13.7991 11.7337 13.9533 11.8775 14.0494C11.7794 13.9407 11.6856 13.8284 11.5918 13.7157C12.1597 13.9396 12.7279 14.1916 13.2049 14.5827C13.6893 14.9554 14.0332 15.4776 14.3196 16.0135C14.5647 16.4663 14.7605 16.9487 14.8707 17.4539C14.5661 17.099 14.2525 16.7516 13.9461 16.3977C13.9832 16.5374 14.1166 16.6136 14.198 16.7245C14.3553 16.9235 14.5411 17.0964 14.6963 17.2972C14.7705 17.385 14.849 17.4731 14.9471 17.5334C15.0462 17.5648 15.1165 17.4788 15.1754 17.4138C15.581 16.948 15.9869 16.4829 16.4018 16.0257C16.99 15.3349 17.6032 14.6661 18.195 13.9786C18.2895 13.8612 18.459 13.7482 18.4147 13.5752C18.3002 13.395 18.1426 13.2481 18.0034 13.0881C17.0503 11.9946 16.0857 10.912 15.1319 9.81966ZM15.983 11.1601C16.7696 11.982 17.5515 12.8082 18.3416 13.6265C17.0128 13.91 15.6869 14.2097 14.3563 14.4852C14.4944 13.719 14.6382 12.9534 14.7776 12.1871C14.8386 11.834 14.9168 11.4775 15.0758 11.1551C15.149 11.0128 15.272 10.8575 15.4472 10.8669C15.653 10.8947 15.83 11.0261 15.983 11.1601ZM17.3656 14.2996C17.3578 14.3859 17.3353 14.4704 17.2986 14.5488C17.0828 15.0143 16.7328 15.3931 16.4271 15.7975C16.115 16.1788 15.8171 16.5735 15.4743 16.9281C15.338 17.0719 15.2003 17.2243 15.0159 17.3048C14.9282 17.2318 14.8864 17.1228 14.8632 17.0137C14.702 16.1774 14.5215 15.3443 14.3521 14.5094C15.1682 14.3957 15.9737 14.1653 16.8034 14.1693C16.9964 14.1779 17.1973 14.1949 17.3656 14.2996Z" fill="#0C1427"/>
<path d="M30.0002 18.6449C29.9888 18.6449 29.966 18.6449 29.9542 18.6453C28.5609 18.6449 27.1672 18.6417 25.7739 18.6467C25.7764 19.7329 25.7761 20.8188 25.7739 21.9047C24.4298 21.9007 23.0854 21.9039 21.741 21.9036C21.7378 22.9699 21.7438 24.0363 21.7378 25.103C20.4222 25.1019 19.1067 25.1009 17.7908 25.103C17.7883 26.2134 17.7915 27.3239 17.7893 28.4343C15.9227 28.4321 14.0557 28.4357 12.189 28.4325C12.1847 27.3224 12.1897 26.212 12.1865 25.1019C10.8824 25.1005 9.57826 25.1048 8.27484 25.0994C8.21777 25.0727 8.24345 25.0012 8.23489 24.9521C8.23596 23.9363 8.23489 22.9205 8.2356 21.9047C6.89152 21.9007 5.54709 21.9058 4.20265 21.9021C4.1998 20.8163 4.20015 19.7308 4.20265 18.6449C2.80827 18.6399 1.4139 18.6518 0.0198841 18.6391L0.000976562 18.6377V31.0603C0.348055 31.1682 0.720817 31.2116 1.0786 31.1325C1.4831 31.0408 1.86656 30.8772 2.24717 30.7151C2.67701 30.8862 3.10934 31.0661 3.56593 31.1487C4.21942 31.2596 4.84152 30.9606 5.42937 30.7151C5.9252 30.9014 6.4196 31.1336 6.95395 31.1704C7.54323 31.2033 8.08543 30.9274 8.62049 30.7183C9.1231 30.9072 9.62498 31.1412 10.1675 31.1726C10.7458 31.1914 11.2794 30.9281 11.8038 30.7161C12.3242 30.914 12.8471 31.1599 13.4125 31.1737C13.969 31.1693 14.483 30.9227 14.9888 30.7161C15.4854 30.9032 15.9812 31.1332 16.5166 31.1708C17.1055 31.2011 17.6459 30.9241 18.1817 30.7176C18.6604 30.9032 19.1406 31.1199 19.6564 31.1682C20.1343 31.2105 20.5902 31.0267 21.0272 30.8559C21.1378 30.8154 21.2423 30.7483 21.3607 30.7346C21.4988 30.7562 21.624 30.8259 21.7556 30.8707C22.2343 31.0498 22.7415 31.2383 23.2598 31.1524C23.7093 31.0791 24.1291 30.8895 24.5475 30.7165C25.0979 30.9234 25.6541 31.1924 26.2551 31.1715C26.7738 31.1379 27.2539 30.9119 27.729 30.7169C28.2206 30.9129 28.715 31.1509 29.2518 31.1729C29.4969 31.1834 29.7373 31.1256 29.9727 31.0646C29.972 31.2502 29.9706 31.4355 29.9745 31.6214C29.4698 31.7684 28.9222 31.7421 28.4275 31.568C28.1828 31.4882 27.9534 31.3697 27.7273 31.2477C27.2685 31.5146 26.7538 31.7085 26.2194 31.7153C25.7646 31.7287 25.3184 31.5972 24.9068 31.4106C24.7855 31.3622 24.6713 31.2946 24.5461 31.2574C24.2147 31.421 23.8794 31.5918 23.5131 31.6604C23.0897 31.7532 22.6438 31.7283 22.2297 31.6019C21.9293 31.5149 21.6468 31.3784 21.3632 31.2484C20.8945 31.5109 20.3758 31.7146 19.8333 31.7157C19.2868 31.7269 18.7621 31.5308 18.277 31.2939C18.2306 31.2737 18.1767 31.2372 18.1282 31.2737C17.6684 31.5326 17.1537 31.7193 16.6218 31.7157C16.0975 31.7244 15.5956 31.5341 15.1283 31.3102C15.0637 31.2849 14.991 31.226 14.925 31.282C14.4737 31.5351 13.9693 31.7164 13.4482 31.7161C12.8639 31.7323 12.3199 31.4893 11.8002 31.2481C11.3165 31.5304 10.7679 31.7298 10.2029 31.7153C9.66244 31.7121 9.15342 31.5012 8.6715 31.2737C8.60943 31.2322 8.54844 31.2874 8.49243 31.3134C7.98412 31.5962 7.39876 31.7655 6.8159 31.7049C6.32507 31.6644 5.87348 31.4514 5.43116 31.2488C4.93997 31.5279 4.3885 31.7366 3.81705 31.715C3.25951 31.7124 2.74121 31.4784 2.24361 31.2484C1.57834 31.6449 0.75506 31.858 0.000976562 31.6128V33.5946C0.0655422 34.3301 0.240686 35.095 0.719389 35.6738C1.09001 36.1444 1.64005 36.4376 2.21079 36.5773C3.00447 36.7814 3.82918 36.7171 4.63962 36.7276C7.06488 36.7261 9.4905 36.7312 11.9154 36.725C12.8172 36.7929 13.6501 37.2642 14.2904 37.8936C14.59 38.2081 14.8636 38.571 14.977 39H14.9927C15.1122 38.632 15.3141 38.2933 15.5806 38.0153C15.8874 37.669 16.258 37.3837 16.6614 37.1627C17.098 36.92 17.5839 36.7489 18.0843 36.7279C20.7732 36.7272 23.4617 36.7279 26.1502 36.7276C26.7927 36.7384 27.4476 36.6983 28.0611 36.4892C28.6229 36.2975 29.1395 35.9284 29.4487 35.4091C29.8579 34.7638 29.9606 33.9788 30.0002 33.228V18.6449ZM29.1113 32.5289C29.4013 32.5712 29.6895 32.4989 29.9709 32.4361C29.9688 32.6199 29.9699 32.8037 29.9706 32.9879C29.2629 33.2013 28.4942 33.0388 27.8599 32.6827C27.8043 32.6622 27.7444 32.5928 27.6844 32.6398C27.184 32.9204 26.6179 33.1175 26.0389 33.08C25.5132 33.0543 25.022 32.8416 24.554 32.6149C24.0193 32.9121 23.415 33.1331 22.7957 33.0749C22.3056 33.0431 21.8494 32.8427 21.4099 32.6354C21.3554 32.5972 21.3004 32.651 21.2505 32.6719C20.7236 32.9669 20.1129 33.1428 19.5083 33.0655C19.04 33.0146 18.6073 32.8131 18.1828 32.6206C18.1093 32.6387 18.0472 32.6856 17.9798 32.7185C17.4872 32.9745 16.9275 33.1331 16.3707 33.0699C15.8824 33.0272 15.4297 32.82 14.9902 32.6145C14.4313 32.9359 13.7831 33.1526 13.1339 33.0644C12.682 33.0146 12.2621 32.8265 11.8533 32.6362C11.7973 32.5972 11.7428 32.6517 11.6914 32.673C11.1956 32.9478 10.6291 33.124 10.0591 33.0756C9.59894 33.0424 9.16305 32.8712 8.74962 32.6734C8.6897 32.6499 8.62192 32.5936 8.5595 32.6434C8.03335 32.9424 7.42659 33.1399 6.81768 33.0706C6.32721 33.0287 5.87419 32.8196 5.43258 32.6145C4.8722 32.9384 4.22263 33.1522 3.57128 33.0652C3.10328 33.011 2.66952 32.8131 2.24717 32.6131C1.96573 32.7705 1.6718 32.9099 1.35933 32.9919C0.919504 33.1154 0.447221 33.1136 0.00811195 32.9882C0.0123921 32.8019 0.00989532 32.6156 0.0109673 32.4296C0.355903 32.5329 0.724384 32.5784 1.0786 32.4989C1.4831 32.4061 1.86692 32.2426 2.24824 32.0815C2.55287 32.2068 2.86036 32.3256 3.17497 32.4227C3.50386 32.5246 3.85415 32.5755 4.19516 32.5105C4.62535 32.4285 5.02986 32.2501 5.43223 32.0815C5.75648 32.2108 6.08144 32.3411 6.41674 32.4379C6.78558 32.5513 7.18617 32.5795 7.55964 32.4719C7.92919 32.3863 8.26949 32.2097 8.62691 32.0894C9.15199 32.2779 9.67314 32.5322 10.241 32.5416C10.7914 32.5307 11.2997 32.2884 11.8002 32.0815C12.3338 32.2823 12.87 32.5361 13.45 32.5416C13.9925 32.5217 14.4948 32.2862 14.9888 32.0808C15.4943 32.2758 16.0026 32.5087 16.5501 32.5401C17.1273 32.5542 17.6574 32.2873 18.1828 32.0815C18.7032 32.2873 19.2326 32.5278 19.8008 32.539C20.353 32.534 20.8595 32.2812 21.3639 32.0833C21.8733 32.2797 22.3859 32.5123 22.9381 32.5412C23.507 32.5502 24.0271 32.2837 24.5475 32.0869C25.0901 32.2808 25.6305 32.5488 26.2187 32.5412C26.7492 32.5141 27.2386 32.2823 27.7244 32.0869C28.1799 32.2512 28.6233 32.4794 29.1113 32.5289Z" fill="#00923F"/>
</svg>
