<svg viewBox="0 0 20 20"
     xmlns="http://www.w3.org/2000/svg">

    <style>
        :root {
            --circle-color: black;
            --indicator-color: white;
        }
    </style>


    <path d="M0 10 A10 10 0 0 0 20 10 M3 10 A7 7 0 0 0 17 10"
          fill="var(--circle-color)" fill-rule="evenodd" stroke="none"/>
    <path d="M20 10 A10 10 0 0 0 10 0 m0 0 L20 10 H17 m0 0 A7 7 0 0 0 10 3 m0 0 V0 L17 10"
          fill="var(--circle-color)" stroke="none"/>

    <path d="M0 10 A10 10 0 0 1 10 0 m0 0 L0 10 H3 m0 0 A7 7 0 0 1 10 3 m0 0 V0 L3 10"
          stroke="none" fill="var(--indicator-color)"
    />

</svg>
